<?xml version="1.0" encoding="UTF-8" standalone="no"?>
<!-- Created with Inkscape (http://www.inkscape.org/) -->

<svg
   width="210mm"
   height="297mm"
   viewBox="0 0 210 297"
   version="1.1"
   id="svg5"
   inkscape:version="1.1.1 (3bf5ae0d25, 2021-09-20)"
   sodipodi:docname="favicon.svg"
   inkscape:export-filename="C:\Code Projects\Entangled\images\bitmap.png"
   inkscape:export-xdpi="122.5"
   inkscape:export-ydpi="122.5"
   xmlns:inkscape="http://www.inkscape.org/namespaces/inkscape"
   xmlns:sodipodi="http://sodipodi.sourceforge.net/DTD/sodipodi-0.dtd"
   xmlns="http://www.w3.org/2000/svg"
   xmlns:svg="http://www.w3.org/2000/svg">
  <sodipodi:namedview
     id="namedview7"
     pagecolor="#ffffff"
     bordercolor="#666666"
     borderopacity="1.0"
     inkscape:pageshadow="2"
     inkscape:pageopacity="0.0"
     inkscape:pagecheckerboard="0"
     inkscape:document-units="mm"
     showgrid="false"
     inkscape:zoom="2.9647587"
     inkscape:cx="409.30818"
     inkscape:cy="494.64397"
     inkscape:window-width="1920"
     inkscape:window-height="1017"
     inkscape:window-x="1912"
     inkscape:window-y="-8"
     inkscape:window-maximized="1"
     inkscape:current-layer="layer1" />
  <defs
     id="defs2" />
  <g
     inkscape:label="Layer 1"
     inkscape:groupmode="layer"
     id="layer1">
    <path
       style="fill:#ff0000;fill-opacity:1;stroke:#000000;stroke-width:0.296645px;stroke-linecap:butt;stroke-linejoin:miter;stroke-opacity:1"
       d="m 85.547733,156.78475 c 0,0 0.82702,-0.81019 0.718488,-3.56712 -0.108531,-2.75694 -4.85895,-5.47047 -6.196944,-8.13749 -1.337995,-2.66703 -1.519851,-5.74816 -0.718485,-7.91455 0.801364,-2.16639 2.02459,-3.34333 4.221106,-3.56712 2.196515,-0.22379 5.243326,2.8037 7.364484,4.23595 2.121158,1.43224 4.527849,2.38312 5.25393,1.69995 0.726081,-0.68317 1.233312,-0.8793 0.763391,-3.48351 -0.469921,-2.6042 -4.172953,-4.56132 -6.286754,-7.6916 -2.113802,-3.13027 -4.161438,-7.93747 -4.041486,-11.92755 0.119953,-3.99009 1.618118,-7.58301 4.041486,-9.80959 2.423367,-2.22658 6.199168,-3.07026 9.070889,-2.0065 2.871722,1.06375 4.855112,4.17495 6.376562,7.46866 1.52145,3.2937 1.51942,8.38092 2.15547,11.59314 0.63604,3.21221 0.50413,5.93944 1.61659,7.69159 1.11245,1.75216 2.24776,3.03035 3.86186,2.56388 1.6141,-0.46647 2.4095,-2.17025 1.97584,-4.68185 -0.43366,-2.5116 -1.9593,-4.82429 -2.24527,-7.02277 -0.28597,-2.19848 -0.34583,-4.19974 0.26943,-5.79656 0.61526,-1.59683 2.01013,-2.56853 2.87394,-3.23271 0.8638,-0.66418 2.06565,-1.00325 2.06565,-1.00325 0,0 0.3199,-1.24987 1.07773,-1.78356 0.75783,-0.53368 2.2717,-0.5447 3.41281,-0.44589 0.59582,0.0516 1.73866,0.53769 1.73866,0.53769 0,0 0.28849,-0.22754 0.45248,-0.24632 0.16233,-0.0186 0.36263,-0.008 0.47629,0.13793 0.0923,0.11779 0.0794,0.48279 0.0794,0.48279 0,0 0.5962,0.0843 0.8732,0.21677 0.35655,0.17049 0.7109,0.39786 0.98434,0.72912 0.12238,0.14824 0.27349,0.53868 0.27349,0.53868 l 3.25902,-1.51412 -2.36559,1.59616 2.88951,0.25618 -3.76272,0.23646 c 0,0 0.0177,0.45661 -0.0635,0.65029 -0.16089,0.38373 -0.48984,0.62364 -0.77794,0.86706 -0.23478,0.19836 -0.76207,0.47293 -0.76207,0.47293 0,0 0.0511,0.21948 0.0159,0.3153 -0.094,0.25581 -0.32368,0.42814 -0.53979,0.51234 -0.22745,0.0886 -0.71446,-0.0395 -0.71446,-0.0395 0,0 -1.54118,1.02525 -2.38145,1.28088 -0.71632,0.21792 -1.63001,0.42587 -2.20684,0.19706 -0.57684,-0.22881 -1.09547,-1.12324 -1.09547,-1.12324 0,0 -1.01297,-0.10117 -1.50827,0.72912 -0.4953,0.83026 -0.50919,2.23628 -0.25402,4.17762 0.25518,1.94134 1.98232,4.716 2.38147,7.01524 0.39914,2.29924 0.80599,4.32679 0.13445,6.49741 -0.67153,2.17063 -1.93273,4.42854 -4.13129,5.40641 -2.19857,0.97788 -5.68901,0.45641 -7.94825,-1.22619 -2.25924,-1.68261 -3.22236,-4.45224 -4.49054,-7.91454 -1.26818,-3.4623 -1.35234,-9.81689 -2.51471,-12.7636 -1.16235,-2.94671 -1.575068,-4.65048 -3.278087,-5.12774 -1.703018,-0.47725 -3.800276,0.57011 -4.67016,2.84255 -0.869885,2.27244 -0.192241,5.8977 1.57169,8.41617 1.763932,2.51847 5.007434,4.86181 6.196937,7.74734 1.18951,2.88552 1.86002,5.91096 1.12264,8.41618 -0.73737,2.50522 -2.618865,4.10714 -4.580349,4.84905 -1.961485,0.74191 -4.347896,0.0878 -6.062227,-1.05899 -1.714333,-1.14683 -3.336897,-2.87941 -4.804878,-4.013 -1.467982,-1.1336 -3.069188,-2.31598 -4.131294,-1.33768 -1.062108,0.97831 -0.992809,2.82516 -0.224528,4.51464 0.768281,1.68947 2.665695,3.65455 3.592431,4.84905 0.926736,1.19449 1.906818,3.75658 1.706405,5.40641 -0.200412,1.64982 -2.110597,3.28851 -2.110597,3.28851 z"
       id="path888"
       sodipodi:nodetypes="czzzzzzzzzzzzzzzzzzzczscsscsscccccsscsscszczzzzzzzzzzzzzzzzzzzzc"
       inkscape:export-filename="C:\Code Projects\Entangled\images\favicon.png"
       inkscape:export-xdpi="95.5"
       inkscape:export-ydpi="95.5" />
  </g>
</svg>
